<?xml version="1.0" standalone="no"?>
<!DOCTYPE svg PUBLIC "-//W3C//DTD SVG 20010904//EN"
 "http://www.w3.org/TR/2001/REC-SVG-20010904/DTD/svg10.dtd">
<svg version="1.0" xmlns="http://www.w3.org/2000/svg"
 width="256.000000pt" height="239.000000pt" viewBox="0 0 256.000000 239.000000"
 preserveAspectRatio="xMidYMid meet">

<g transform="translate(0.000000,239.000000) scale(0.100000,-0.100000)"
fill="#000000" stroke="none">
<path d="M1025 1740 l-260 -260 100 -101 c76 -77 392 -391 421 -419 5 -4 524
511 524 520 0 7 -507 514 -518 518 -4 1 -124 -115 -267 -258z m373 107 c56
-57 100 -106 96 -110 -4 -4 -15 -7 -25 -7 -25 0 -89 -58 -89 -80 0 -14 18 -23
78 -39 43 -12 84 -21 90 -21 17 0 15 -6 -18 -52 -29 -40 -39 -91 -20 -103 8
-5 118 12 210 32 21 5 17 -3 -30 -51 l-54 -56 -63 0 -62 0 -6 33 c-15 79 -101
152 -193 164 -104 14 -232 -81 -232 -173 0 -23 -3 -24 -67 -24 -68 0 -68 1
-128 54 -33 30 -58 57 -55 60 3 3 39 -3 80 -14 125 -31 159 -34 166 -16 10 26
-4 63 -37 101 -18 20 -30 37 -28 38 2 2 38 11 79 21 111 26 110 26 110 45 0
23 -36 56 -84 76 l-39 17 104 104 c57 57 106 104 109 104 3 0 52 -46 108 -103z
m-285 -171 c15 -12 9 -15 -50 -30 -90 -21 -93 -21 -58 13 33 33 78 40 108 17z
m460 -20 l35 -33 -78 21 c-67 17 -76 22 -61 33 29 22 66 15 104 -21z m-584
-132 c14 -13 23 -25 20 -28 -5 -5 -128 20 -136 27 -9 10 52 36 72 30 11 -3 31
-16 44 -29z m707 14 c9 -14 -1 -20 -53 -29 -26 -5 -57 -12 -68 -16 -18 -5 -19
-4 -5 12 37 45 108 63 126 33z m-335 -44 c38 -19 89 -81 89 -108 0 -32 -15
-34 -187 -36 -139 -1 -143 0 -143 20 0 51 54 113 117 135 40 14 81 11 124 -11z
m219 -190 c0 -3 -14 -19 -31 -35 -28 -26 -38 -29 -95 -29 -49 0 -66 -4 -71
-15 -7 -21 -4 -23 37 -26 66 -5 55 -14 -25 -19 -72 -4 -80 -7 -80 -25 0 -16 8
-21 43 -23 23 -2 42 -6 42 -9 0 -4 -25 -31 -56 -61 l-57 -54 -78 81 c-44 44
-79 82 -79 85 0 3 19 6 43 8 29 2 42 8 42 18 0 11 -17 16 -72 20 -78 5 -111
20 -46 20 22 0 45 6 52 13 19 24 -9 37 -81 37 -39 0 -68 4 -68 10 0 6 103 10
290 10 160 0 290 -3 290 -6z"/>
<path d="M175 837 c-3 -7 -4 -58 -3 -113 l3 -99 48 -3 c36 -2 47 0 47 12 0 9
-12 16 -32 18 -28 3 -32 7 -33 33 0 26 4 30 28 33 33 4 31 24 -3 32 -44 10
-34 70 12 70 46 0 28 24 -20 28 -29 2 -44 -1 -47 -11z"/>
<path d="M340 830 c-30 -30 -24 -57 20 -103 41 -41 48 -69 19 -75 -11 -2 -19
6 -23 23 -9 35 -32 26 -28 -11 4 -33 17 -44 53 -44 60 0 68 67 14 120 -22 22
-35 42 -33 55 4 27 32 25 36 -2 5 -31 32 -30 32 1 0 51 -53 73 -90 36z"/>
<path d="M507 843 c-4 -3 -7 -55 -7 -115 0 -87 3 -108 14 -108 11 0 16 14 18
48 3 40 6 47 26 50 51 7 67 98 22 122 -21 11 -63 13 -73 3z m61 -62 c-4 -38
-38 -42 -38 -3 0 34 7 43 27 35 8 -3 13 -16 11 -32z"/>
<path d="M674 837 c-10 -27 1 -210 13 -214 8 -3 13 11 15 39 2 35 7 43 23 43
16 0 21 -8 23 -42 2 -29 8 -43 17 -43 11 0 14 22 14 105 0 92 -3 106 -19 115
-27 14 -80 12 -86 -3z m72 -43 c8 -29 -7 -49 -30 -41 -16 6 -22 48 -9 60 14
15 33 6 39 -19z"/>
<path d="M857 843 c-4 -3 -7 -55 -7 -115 l0 -108 45 0 c33 0 45 4 45 15 0 10
-10 15 -30 15 -28 0 -30 3 -30 34 0 30 4 35 25 38 33 4 33 22 0 26 -23 3 -26
8 -23 35 2 27 8 33 31 35 43 5 34 32 -11 32 -21 0 -42 -3 -45 -7z"/>
<path d="M1017 832 c-29 -32 -21 -68 24 -111 29 -27 40 -44 35 -56 -9 -23 -40
-14 -44 13 -5 30 -32 29 -32 -2 0 -31 25 -56 55 -56 13 0 31 7 39 16 27 27 19
62 -24 104 -41 41 -50 64 -26 73 16 6 36 -11 36 -30 0 -7 7 -13 15 -13 22 0
19 36 -5 60 -25 25 -52 26 -73 2z"/>
<path d="M1196 837 c-10 -7 -18 -27 -18 -46 -1 -26 7 -41 35 -68 38 -35 49
-73 22 -73 -9 0 -20 11 -25 25 -13 33 -30 32 -30 -3 0 -35 16 -52 51 -52 61 0
69 64 15 119 -34 35 -45 64 -28 75 11 7 27 -6 35 -27 10 -26 33 -15 29 14 -6
43 -50 62 -86 36z"/>
<path d="M1370 830 c-16 -16 -20 -33 -20 -93 0 -82 16 -117 55 -117 44 0 55
24 55 115 0 75 -2 85 -22 99 -30 21 -44 20 -68 -4z m60 -102 c0 -54 -3 -70
-16 -75 -24 -9 -34 15 -34 83 0 64 14 92 37 73 8 -8 13 -35 13 -81z"/>
<path d="M1662 834 c-20 -14 -22 -24 -22 -98 0 -89 13 -116 58 -116 41 0 52
25 52 115 0 75 -2 85 -22 99 -12 9 -27 16 -33 16 -6 0 -21 -7 -33 -16z m56
-102 c2 -59 0 -73 -13 -78 -23 -9 -27 -1 -33 55 -6 66 4 103 26 99 14 -3 18
-17 20 -76z"/>
<path d="M1846 742 c-30 -127 -30 -122 -12 -122 8 0 19 14 25 30 5 17 17 30
25 30 7 0 19 -13 25 -30 13 -38 31 -39 30 -2 -1 44 -43 195 -56 199 -7 3 -21
-36 -37 -105z m41 -24 c-3 -7 -5 -2 -5 12 0 14 2 19 5 13 2 -7 2 -19 0 -25z"/>
<path d="M2025 836 c-32 -23 -24 -73 19 -112 36 -33 44 -63 19 -71 -7 -3 -18
7 -25 21 -14 32 -34 28 -30 -4 4 -34 21 -50 53 -50 37 0 64 37 50 71 -5 13
-23 37 -40 53 -29 28 -39 55 -25 69 11 11 34 -5 34 -24 0 -10 7 -19 15 -19 20
0 20 44 -1 64 -19 20 -44 20 -69 2z"/>
<path d="M2180 736 c0 -98 2 -116 15 -116 13 0 15 17 13 112 -2 78 -7 113 -15
116 -10 3 -13 -24 -13 -112z"/>
<path d="M2298 839 c-12 -7 -18 -22 -18 -49 0 -32 6 -43 36 -68 22 -18 35 -37
32 -48 -5 -28 -27 -28 -38 0 -13 34 -30 33 -30 -2 0 -35 16 -52 52 -52 33 0
62 37 52 66 -4 10 -22 35 -41 55 -34 36 -41 68 -16 76 7 3 18 -7 25 -21 14
-32 34 -28 30 5 -4 42 -46 60 -84 38z"/>
<path d="M720 466 c0 -67 2 -75 21 -81 12 -4 26 -2 31 3 7 7 3 12 -11 17 -28
9 -27 41 1 48 22 6 18 22 -5 22 -7 0 -13 10 -15 23 -3 17 2 22 17 22 12 0 21
5 21 10 0 6 -13 10 -30 10 l-30 0 0 -74z"/>
<path d="M877 533 c-17 -16 -6 -63 18 -79 26 -17 34 -44 14 -44 -7 0 -18 8
-26 18 -12 16 -13 15 -11 -8 2 -20 8 -25 33 -25 25 0 31 4 33 26 2 19 -4 33
-22 47 -15 11 -26 27 -26 36 0 21 17 20 29 -1 12 -23 25 -11 16 16 -6 20 -43
29 -58 14z"/>
<path d="M1033 522 c12 -13 17 -37 17 -75 0 -31 5 -57 10 -57 6 0 10 27 10 61
0 47 4 65 18 75 15 12 12 13 -27 14 -42 0 -43 -1 -28 -18z"/>
<path d="M1317 534 c-10 -11 -9 -44 2 -44 5 0 11 8 14 18 4 16 4 16 12 -1 5
-13 1 -28 -14 -48 -28 -38 -25 -74 7 -74 12 0 22 5 22 10 0 6 -4 10 -9 10 -21
0 -21 15 -1 43 27 37 24 86 -5 90 -12 2 -24 0 -28 -4z"/>
<path d="M1474 529 c-10 -17 -15 -80 -8 -112 5 -23 10 -28 32 -25 25 3 27 7
30 52 4 67 -4 96 -28 96 -10 0 -22 -5 -26 -11z m36 -64 c0 -48 -15 -68 -25
-34 -9 27 3 91 16 84 5 -4 9 -26 9 -50z"/>
<path d="M1626 524 c-3 -9 -6 -35 -6 -59 0 -24 3 -50 6 -59 8 -21 50 -21 58 0
10 27 6 110 -6 122 -17 17 -45 15 -52 -4z m42 -65 c-2 -24 -7 -44 -13 -44 -12
0 -19 69 -10 93 11 29 26 -4 23 -49z"/>
<path d="M1780 494 c0 -41 2 -45 20 -39 16 5 20 2 20 -19 0 -14 -4 -26 -10
-26 -5 0 -10 5 -10 10 0 6 -4 10 -10 10 -5 0 -10 -9 -10 -21 0 -16 5 -20 28
-17 24 3 27 7 30 46 3 37 0 44 -17 49 -27 7 -27 23 -1 30 30 8 24 23 -10 23
-29 0 -30 -2 -30 -46z"/>
</g>
</svg>
